<svg xmlns="http://www.w3.org/2000/svg" width="16" height="3" fill="none"><path fill="#000" d="M.54 1.35c0-.4.1-.7.33-.92.23-.24.54-.35.92-.35.4 0 .71.11.95.35.23.22.35.53.35.92 0 .38-.12.7-.35.93-.24.23-.55.35-.95.35-.38 0-.69-.12-.92-.35a1.3 1.3 0 0 1-.33-.93Zm6.14 0c0-.4.11-.7.33-.92.23-.24.54-.35.92-.35.4 0 .72.11.95.35.23.22.35.53.35.92 0 .38-.12.7-.35.93-.23.23-.55.35-.95.35-.38 0-.69-.12-.92-.35a1.3 1.3 0 0 1-.33-.93Zm6.14 0c0-.4.11-.7.33-.92.24-.24.55-.35.93-.35.4 0 .71.11.94.35.24.22.36.53.36.92 0 .38-.12.7-.36.93-.23.23-.55.35-.94.35-.38 0-.7-.12-.93-.35a1.3 1.3 0 0 1-.33-.93Z"/></svg>