<svg xmlns="http://www.w3.org/2000/svg" width="76" height="72" fill="none"><path fill="#83B3D3" d="M30.1 65h16V41.2h-16V65Zm3-20.9h10v18h-10v-18Z"/><path fill="#83B3D3" d="m73.4 39.3 2.1-2.1-10-9.9V0H51.7v13.6L37.9 0 .5 37.2l2.1 2.1 7.8-7.8v37.6h-4V72h64.2v-2.9h-5.1V31.5l7.9 7.8ZM62.5 69.1H13.4V28.5L37.9 4.1l24.6 24.4v40.6Zm0-44.7-7.9-7.9V2.9h8v21.5Z"/><path fill="#83B3D3" d="M30.3 27.1c0 4.3 3.5 7.7 7.8 7.7s7.8-3.5 7.8-7.7c0-4.3-3.5-7.7-7.8-7.7a7.7 7.7 0 0 0-7.8 7.7Zm7.9-5a5 5 0 0 1 5 4.9 5 5 0 0 1-5 4.9 5 5 0 0 1-5-4.9 5 5 0 0 1 5-4.9ZM20.5 41.2h-3v3.9h3v-3.9ZM26.4 41.2h-3v3.9h3v-3.9ZM20.5 47.2h-3v3.9h3v-3.9ZM26.4 47.2h-3v3.9h3v-3.9ZM52.5 41.2h-3v3.9h3v-3.9ZM58.4 41.2h-3v3.9h3v-3.9ZM52.5 47.2h-3v3.9h3v-3.9ZM58.4 47.2h-3v3.9h3v-3.9Z"/></svg>